<svg width="78" height="40" viewBox="0 0 78 40" fill="none" xmlns="http://www.w3.org/2000/svg">
    <rect width="78" height="40" rx="8" fill="#7D298A"/>
    <circle cx="39" cy="20" r="2" fill="#7D298A"/>
    <path d="M21.1239 25V15.06H23.0559V23.306H28.1239V25H21.1239ZM28.6137 22.83C28.6137 22.354 28.7443 21.9387 29.0057 21.584C29.2763 21.22 29.6497 20.94 30.1257 20.744C30.6017 20.548 31.1477 20.45 31.7637 20.45C32.0717 20.45 32.3843 20.4733 32.7017 20.52C33.019 20.5667 33.2943 20.6413 33.5277 20.744V20.352C33.5277 19.8853 33.3877 19.526 33.1077 19.274C32.837 19.022 32.431 18.896 31.8897 18.896C31.4883 18.896 31.1057 18.966 30.7417 19.106C30.3777 19.246 29.995 19.4513 29.5937 19.722L28.9917 18.49C29.477 18.1727 29.9717 17.9347 30.4757 17.776C30.989 17.6173 31.5257 17.538 32.0857 17.538C33.131 17.538 33.943 17.7993 34.5217 18.322C35.1097 18.8447 35.4037 19.5913 35.4037 20.562V22.9C35.4037 23.096 35.4363 23.236 35.5017 23.32C35.5763 23.404 35.693 23.4553 35.8517 23.474V25C35.6837 25.028 35.5297 25.0513 35.3897 25.07C35.259 25.0887 35.147 25.098 35.0537 25.098C34.6803 25.098 34.3957 25.014 34.1997 24.846C34.013 24.678 33.8963 24.4727 33.8497 24.23L33.8077 23.852C33.4903 24.2627 33.0937 24.58 32.6177 24.804C32.1417 25.028 31.6563 25.14 31.1617 25.14C30.6763 25.14 30.2377 25.042 29.8457 24.846C29.463 24.6407 29.1597 24.3653 28.9357 24.02C28.721 23.6653 28.6137 23.2687 28.6137 22.83ZM33.1777 23.208C33.2803 23.096 33.3643 22.984 33.4297 22.872C33.495 22.76 33.5277 22.6573 33.5277 22.564V21.822C33.3037 21.7287 33.061 21.6587 32.7997 21.612C32.5383 21.556 32.291 21.528 32.0577 21.528C31.5723 21.528 31.171 21.6353 30.8537 21.85C30.5457 22.0553 30.3917 22.3307 30.3917 22.676C30.3917 22.8627 30.443 23.04 30.5457 23.208C30.6483 23.376 30.7977 23.5113 30.9937 23.614C31.1897 23.7167 31.423 23.768 31.6937 23.768C31.9737 23.768 32.249 23.7167 32.5197 23.614C32.7903 23.502 33.0097 23.3667 33.1777 23.208ZM41.3287 25.14C40.7687 25.14 40.2694 25.014 39.8307 24.762C39.3921 24.51 39.0467 24.1647 38.7947 23.726V25H37.1567V14.78H39.0327V18.952C39.2941 18.5133 39.6347 18.168 40.0547 17.916C40.4841 17.664 40.9834 17.538 41.5527 17.538C42.0287 17.538 42.4627 17.6407 42.8547 17.846C43.2467 18.042 43.5827 18.3173 43.8627 18.672C44.1521 19.0267 44.3714 19.4327 44.5207 19.89C44.6794 20.3473 44.7587 20.8373 44.7587 21.36C44.7587 21.8827 44.6701 22.3727 44.4927 22.83C44.3247 23.2873 44.0867 23.6933 43.7787 24.048C43.4707 24.3933 43.1067 24.664 42.6867 24.86C42.2761 25.0467 41.8234 25.14 41.3287 25.14ZM40.8107 23.544C41.1094 23.544 41.3801 23.488 41.6227 23.376C41.8747 23.2547 42.0894 23.096 42.2667 22.9C42.4534 22.704 42.5934 22.4753 42.6867 22.214C42.7894 21.9433 42.8407 21.6633 42.8407 21.374C42.8407 20.9727 42.7567 20.604 42.5887 20.268C42.4301 19.9227 42.2061 19.6473 41.9167 19.442C41.6367 19.2367 41.3054 19.134 40.9227 19.134C40.6521 19.134 40.3907 19.1993 40.1387 19.33C39.8961 19.4513 39.6767 19.6193 39.4807 19.834C39.2941 20.0487 39.1447 20.2913 39.0327 20.562V22.312C39.0887 22.4987 39.1774 22.6667 39.2987 22.816C39.4294 22.9653 39.5787 23.096 39.7467 23.208C39.9147 23.3107 40.0874 23.3947 40.2647 23.46C40.4514 23.516 40.6334 23.544 40.8107 23.544ZM49.4318 25.14C48.8438 25.14 48.3118 25.042 47.8358 24.846C47.3598 24.6407 46.9538 24.3653 46.6178 24.02C46.2818 23.6653 46.0204 23.264 45.8338 22.816C45.6564 22.3587 45.5678 21.878 45.5678 21.374C45.5678 20.674 45.7218 20.0347 46.0298 19.456C46.3471 18.8773 46.7951 18.4153 47.3738 18.07C47.9618 17.7153 48.6524 17.538 49.4458 17.538C50.2484 17.538 50.9344 17.7153 51.5038 18.07C52.0731 18.4153 52.5071 18.8773 52.8058 19.456C53.1138 20.0253 53.2678 20.6413 53.2678 21.304C53.2678 21.416 53.2631 21.5327 53.2538 21.654C53.2444 21.766 53.2351 21.8593 53.2258 21.934H47.5558C47.5931 22.3073 47.7004 22.634 47.8778 22.914C48.0644 23.194 48.2978 23.4087 48.5778 23.558C48.8671 23.698 49.1751 23.768 49.5018 23.768C49.8751 23.768 50.2251 23.6793 50.5518 23.502C50.8878 23.3153 51.1164 23.0727 51.2378 22.774L52.8478 23.222C52.6704 23.5953 52.4138 23.9267 52.0778 24.216C51.7511 24.5053 51.3638 24.734 50.9158 24.902C50.4678 25.0607 49.9731 25.14 49.4318 25.14ZM47.5138 20.744H51.3498C51.3124 20.3707 51.2051 20.0487 51.0278 19.778C50.8598 19.498 50.6358 19.2833 50.3558 19.134C50.0758 18.9753 49.7631 18.896 49.4178 18.896C49.0818 18.896 48.7738 18.9753 48.4938 19.134C48.2231 19.2833 47.9991 19.498 47.8218 19.778C47.6538 20.0487 47.5511 20.3707 47.5138 20.744ZM54.3966 14.78H56.2726V22.648C56.2726 22.984 56.3286 23.2127 56.4406 23.334C56.5526 23.446 56.7066 23.502 56.9026 23.502C57.052 23.502 57.206 23.4833 57.3646 23.446C57.5233 23.4087 57.6633 23.362 57.7846 23.306L58.0366 24.734C57.7846 24.8553 57.4906 24.9487 57.1546 25.014C56.8186 25.0793 56.5153 25.112 56.2446 25.112C55.6566 25.112 55.1993 24.958 54.8726 24.65C54.5553 24.3327 54.3966 23.8847 54.3966 23.306V14.78Z"
          fill="#F8FBFB"/>
</svg>
